<svg width="122" height="122" viewBox="0 0 122 122" fill="none" xmlns="http://www.w3.org/2000/svg">
<path d="M106.75 81.3333V96.5833C106.75 105.006 86.2642 111.833 61 111.833C35.7358 111.833 15.25 105.006 15.25 96.5833V81.3333C15.25 89.7564 35.7358 96.5833 61 96.5833C86.2642 96.5833 106.75 89.7564 106.75 81.3333ZM61 76.25C35.7358 76.25 15.25 69.4231 15.25 61V76.25C15.25 84.6731 35.7358 91.5 61 91.5C86.2642 91.5 106.75 84.6731 106.75 76.25V61C106.75 69.4231 86.2642 76.25 61 76.25ZM61 10.1667C35.7358 10.1667 15.25 16.9936 15.25 25.4167V35.5833C15.25 44.0064 35.7358 50.8333 61 50.8333C86.2642 50.8333 106.75 44.0064 106.75 35.5833V25.4167C106.75 16.9936 86.2642 10.1667 61 10.1667ZM61 55.9167C35.7358 55.9167 15.25 49.0897 15.25 40.6667V55.9167C15.25 64.3397 35.7358 71.1667 61 71.1667C86.2642 71.1667 106.75 64.3397 106.75 55.9167V40.6667C106.75 49.0897 86.2642 55.9167 61 55.9167Z" fill="#699BF7"/>
</svg>
