<svg width="122" height="122" viewBox="0 0 122 122" fill="none" xmlns="http://www.w3.org/2000/svg">
<g clip-path="url(#clip0_0_124)">
<path d="M4.88 0H117.12C118.414 0 119.656 0.514142 120.571 1.42932C121.486 2.3445 122 3.58574 122 4.88V117.12C122 118.414 121.486 119.656 120.571 120.571C119.656 121.486 118.414 122 117.12 122H4.88C3.58574 122 2.3445 121.486 1.42932 120.571C0.514142 119.656 0 118.414 0 117.12V4.88C0 3.58574 0.514142 2.3445 1.42932 1.42932C2.3445 0.514142 3.58574 0 4.88 0V0Z" fill="#EBEDEE"/>
<path d="M12.2002 24.4H109.8V109.8H12.2002V24.4Z" fill="white"/>
<path d="M15.8602 8.53998C16.8309 8.53998 17.7618 8.92558 18.4482 9.61197C19.1346 10.2984 19.5202 11.2293 19.5202 12.2C19.5202 13.1707 19.1346 14.1016 18.4482 14.788C17.7618 15.4744 16.8309 15.86 15.8602 15.86C14.8895 15.86 13.9586 15.4744 13.2722 14.788C12.5858 14.1016 12.2002 13.1707 12.2002 12.2C12.2002 11.2293 12.5858 10.2984 13.2722 9.61197C13.9586 8.92558 14.8895 8.53998 15.8602 8.53998V8.53998Z" fill="#E74C3C"/>
<path d="M28.0604 8.53998C29.0311 8.53998 29.962 8.92558 30.6484 9.61197C31.3348 10.2984 31.7204 11.2293 31.7204 12.2C31.7204 13.1707 31.3348 14.1016 30.6484 14.788C29.962 15.4744 29.0311 15.86 28.0604 15.86C27.0897 15.86 26.1588 15.4744 25.4724 14.788C24.786 14.1016 24.4004 13.1707 24.4004 12.2C24.4004 11.2293 24.786 10.2984 25.4724 9.61197C26.1588 8.92558 27.0897 8.53998 28.0604 8.53998Z" fill="#F39C12"/>
<path d="M40.2596 8.53998C41.2303 8.53998 42.1612 8.92558 42.8476 9.61197C43.534 10.2984 43.9196 11.2293 43.9196 12.2C43.9196 13.1707 43.534 14.1016 42.8476 14.788C42.1612 15.4744 41.2303 15.86 40.2596 15.86C39.2889 15.86 38.358 15.4744 37.6716 14.788C36.9852 14.1016 36.5996 13.1707 36.5996 12.2C36.5996 11.2293 36.9852 10.2984 37.6716 9.61197C38.358 8.92558 39.2889 8.53998 40.2596 8.53998Z" fill="#17A085"/>
<path d="M54.9004 8.53998H109.8V15.86H54.9004V8.53998Z" fill="white"/>
<path d="M24.4004 54.9V61H54.9004V54.9H24.4004ZM24.4004 73.2H54.9004V67.1H24.4004V73.2ZM24.4004 85.4H54.9004V79.3H24.4004V85.4ZM24.4004 97.6H54.9004V91.5H24.4004V97.6Z" fill="#BDC3C7"/>
<path d="M24.4004 36.6H97.6004V48.8H24.4004V36.6Z" fill="#699BF7"/>
<path d="M61 54.9V73.2H97.6V54.9H61ZM61 97.6H97.6V79.3H61V97.6Z" fill="#BDC3C7"/>
</g>
<defs>
<clipPath id="clip0_0_124">
<rect width="122" height="122" fill="white"/>
</clipPath>
</defs>
</svg>
